<svg id="Capa_1" enable-background="new 0 0 512 512" height="512" viewBox="0 0 512 512" width="512" xmlns="http://www.w3.org/2000/svg"><g><path d="m76 420.454c-33.782-41.994-54-95.363-54-153.454 0-135.31 109.69-245 245-245s245 109.69 245 245c0 58.091-20.218 111.46-54 153.454-2.123 2.639-379.877 2.639-382 0z" fill="#ff4fb8"/><path d="m486.302 242.863c0 110.457-89.543 200-200 200s-200-89.543-200-200 89.543-200 200-200 200 89.543 200 200z" fill="#ff73c6"/><path d="m134.322 61h213.678l14.957 50.944 49.787 39.515 45.256 19.541v249.454c-11.227 13.956-23.951 26.655-37.93 37.854-3.247 2.601-6.624-17.882-10.003-15.445-40.264 29.031-89.7 46.134-143.13 46.134-50.751 0-97.898-15.431-137.005-41.858-3.393-2.293-6.663 18.335-9.933 15.879-4.943-3.713-9.74-7.608-14.383-11.675v-368.685c9.01-7.894 18.603-15.137 28.706-21.658z" fill="#fff5f5"/><path d="m107 452.545c-11.277-9.733-21.657-20.477-31-32.091v-359.454h31z" fill="#d9e7ec"/><path d="m458 171h-110v-110l17.16 17.16z" fill="#d9e7ec"/><path d="m321.43 130c0 5.523-4.477 10-10 10h-151.43c-5.523 0-10-4.477-10-10s4.477-10 10-10h151.43c5.523 0 10 4.477 10 10zm-51.43 30h-110c-5.523 0-10 4.477-10 10s4.477 10 10 10h110c5.523 0 10-4.477 10-10s-4.477-10-10-10zm51.43 50c0 5.523-4.477 10-10 10h-151.43c-5.523 0-10-4.477-10-10s4.477-10 10-10h151.43c5.523 0 10 4.477 10 10z" fill="#b6c4cf"/><path d="m420 279.036v179.329c-41.925 33.563-95.118 53.635-153 53.635-55.155 0-106.053-18.226-147-48.982v-183.982c0-2.761 2.239-5 5-5h290c2.761 0 5 2.238 5 5z" fill="#d9e7ec"/><path d="m324.531 361.427v-55.464c0-4.142 3.358-7.5 7.5-7.5h23.37c4.142 0 7.5 3.358 7.5 7.5s-3.358 7.5-7.5 7.5h-15.87v12.732h14.147c4.142 0 7.5 3.358 7.5 7.5s-3.358 7.5-7.5 7.5h-14.147v12.732h15.87c4.142 0 7.5 3.358 7.5 7.5s-3.358 7.5-7.5 7.5h-23.37c-4.142 0-7.5-3.358-7.5-7.5zm-33.447 7.5c12.041 0 22.155-7.702 24.049-18.313 1.429-8.005-2.179-18.453-16.593-23.77-6.789-2.504-13.116-5.229-15.148-6.118-1.272-1.064-1.227-2.525-1.139-3.139.128-.893.784-3.076 4.099-4.075 7.612-2.291 14.723 3.295 14.941 3.47 3.17 2.626 7.872 2.207 10.525-.95 2.665-3.171 2.255-7.902-.916-10.567-.536-.451-13.328-10.999-28.878-6.315-7.917 2.385-13.519 8.633-14.62 16.306-1.035 7.211 2.091 14.148 8.16 18.104.331.216.679.405 1.04.566.325.145 8.048 3.583 16.744 6.791 1.822.672 7.713 3.167 7.018 7.06-.522 2.925-4.137 5.95-9.283 5.95-5.424 0-10.638-2.181-13.948-5.833-2.781-3.069-7.524-3.304-10.594-.521-3.069 2.781-3.303 7.524-.521 10.594 6.198 6.838 15.333 10.76 25.064 10.76zm-122.85 0c7.834 0 14.871-2.578 20.348-7.456 1.073-.956 2.093-2.007 3.031-3.125 2.662-3.174 2.247-7.904-.927-10.566-3.173-2.662-7.904-2.247-10.566.927-.472.562-.981 1.088-1.514 1.562-2.725 2.427-6.215 3.658-10.372 3.658-11.297 0-20.487-9.19-20.487-20.487s9.19-20.487 20.487-20.487c4.107 0 8.066 1.208 11.449 3.494 3.431 2.319 8.094 1.417 10.413-2.016 2.319-3.432 1.417-8.094-2.016-10.413-5.873-3.968-12.735-6.065-19.847-6.065-19.568 0-35.487 15.919-35.487 35.487s15.921 35.487 35.488 35.487zm58.521 17.273h-30.912c-4.142 0-7.5 3.358-7.5 7.5s3.358 7.5 7.5 7.5h7.894v48.475c0 4.142 3.358 7.5 7.5 7.5s7.5-3.358 7.5-7.5v-48.475h8.019c4.142 0 7.5-3.358 7.5-7.5s-3.359-7.5-7.501-7.5zm-59.546 28.891c-6.789-2.504-13.116-5.229-15.148-6.118-1.272-1.064-1.227-2.524-1.139-3.138.128-.893.784-3.076 4.1-4.075 7.605-2.291 14.706 3.282 14.939 3.469 3.171 2.627 7.873 2.208 10.526-.949 2.665-3.171 2.255-7.902-.915-10.567-.537-.451-13.327-10.998-28.877-6.314-7.917 2.385-13.52 8.632-14.621 16.306-1.035 7.211 2.091 14.148 8.16 18.104.331.216.679.405 1.04.566.325.145 8.048 3.583 16.744 6.791 1.822.672 7.713 3.167 7.018 7.06-.522 2.924-4.137 5.95-9.283 5.95-5.424 0-10.638-2.181-13.948-5.833-2.781-3.069-7.524-3.304-10.594-.521-3.069 2.781-3.303 7.524-.521 10.594 6.197 6.839 15.333 10.761 25.063 10.761 12.041 0 22.154-7.702 24.049-18.313 1.429-8.008-2.179-18.456-16.593-23.773zm188.496 7.424c0 19.721-12.135 34.247-28.854 34.539-4.388.077-15.362.119-15.828.121h-.028c-1.979 0-3.878-.782-5.284-2.177-1.301-1.291-2.079-3.009-2.199-4.827-.083-.447-.127-.907-.127-1.378v-53.38c0-.002 0-.004 0-.005 0-.024 0-.037 0-.037-.004-1.992.785-3.903 2.192-5.312 1.407-1.41 3.316-2.202 5.308-2.202h15.384c17.606-.002 29.436 13.927 29.436 34.658zm-15 0c0-4.612-1.041-19.659-14.436-19.659h-7.871c.011 6.639.026 15.834.026 19.6 0 4.496.025 13.304.045 19.68 3.026-.02 6.24-.046 8.119-.08 9.752-.171 14.117-9.937 14.117-19.541zm63.14-34.959c-3.471-2.259-8.118-1.278-10.377 2.194l-11.457 17.6-11.59-17.75c-2.265-3.468-6.913-4.444-10.38-2.179-3.468 2.265-4.444 6.912-2.179 10.38l16.654 25.505-.064 26.351c-.01 4.143 3.339 7.508 7.482 7.519h.019c4.133 0 7.489-3.346 7.5-7.482l.064-26.376 16.523-25.383c2.258-3.474 1.276-8.12-2.195-10.379zm-159.791-23.481-3.356-8.893h-23.417l-3.395 8.914c-1.475 3.871-5.804 5.815-9.678 4.339-3.871-1.474-5.813-5.807-4.339-9.678l21.018-55.187c.022-.058.044-.115.068-.171 1.353-3.306 4.535-5.444 8.107-5.447h.008c3.568 0 6.751 2.131 8.109 5.431.028.068.055.137.082.207l20.828 55.189c1.462 3.875-.494 8.202-4.369 9.665-.872.329-1.767.485-2.646.485-3.033.001-5.886-1.85-7.02-4.854zm-9.017-23.892-5.994-15.883-6.049 15.883zm52.443 46.017c-4.142 0-7.5 3.358-7.5 7.5v38.476c0 2.537-.73 5.817-6.421 8.684-1.757.884-3.668 1.314-5.842 1.314h-.022c-2.372-.003-4.43-.583-6.29-1.771-4.415-2.821-5.319-5.313-5.319-8.188v-38.515c0-4.142-3.358-7.5-7.5-7.5s-7.5 3.358-7.5 7.5v38.517c0 8.629 4.119 15.637 12.244 20.828 4.279 2.733 9.105 4.123 14.345 4.13h.042c4.508 0 8.743-.981 12.588-2.917 12.129-6.108 14.675-15.379 14.675-22.081v-38.477c0-4.142-3.357-7.5-7.5-7.5z" fill="#2740b1"/><path d="m234.255 393.7c0 4.142-3.358 7.5-7.5 7.5h-8.019v26.141c0 4.142-3.358 7.5-7.5 7.5s-7.5-3.358-7.5-7.5v-26.141h-7.894c-4.142 0-7.5-3.358-7.5-7.5s3.358-7.5 7.5-7.5h30.912c4.143 0 7.501 3.358 7.501 7.5zm-44.158-79.269c2.319-3.432 1.417-8.094-2.016-10.413-5.873-3.968-12.735-6.065-19.847-6.065-19.568 0-35.487 15.919-35.487 35.487 0 4.142 3.358 7.5 7.5 7.5s7.5-3.358 7.5-7.5c0-11.297 9.19-20.487 20.487-20.487 4.107 0 8.066 1.208 11.449 3.494 3.432 2.319 8.095 1.417 10.414-2.016zm141.934 34.111c4.091 0 7.417-3.276 7.498-7.347h14.149c4.142 0 7.5-3.358 7.5-7.5s-3.358-7.5-7.5-7.5h-14.147v-12.732h15.87c4.142 0 7.5-3.358 7.5-7.5s-3.358-7.5-7.5-7.5h-23.37c-4.142 0-7.5 3.358-7.5 7.5v35.079c0 4.143 3.358 7.5 7.5 7.5zm-152.459 45.17c-.537-.451-13.327-11-28.877-6.314-7.917 2.385-13.52 8.632-14.621 16.306-1.035 7.211 2.091 14.148 8.16 18.104.331.216.679.405 1.04.566.325.145 8.048 3.583 16.744 6.791.856.316 1.733.465 2.595.465 3.052 0 5.92-1.876 7.038-4.906 1.434-3.886-.555-8.199-4.441-9.632-6.79-2.504-13.117-5.229-15.148-6.118-1.272-1.064-1.227-2.524-1.139-3.138.128-.893.784-3.076 4.1-4.075 7.605-2.291 14.706 3.282 14.939 3.469 3.171 2.627 7.873 2.208 10.526-.95 2.664-3.171 2.255-7.902-.916-10.568zm65.082-49.287c3.875-1.463 5.832-5.79 4.369-9.665l-11.763-31.17c-.026-.069-.053-.138-.082-.207-1.358-3.3-4.541-5.431-8.108-5.431h-.009c-3.572.003-6.754 2.142-8.107 5.447-.023.057-.046.114-.068.171l-12.174 31.964c-1.474 3.871.468 8.204 4.339 9.678.879.335 1.781.493 2.668.493 3.022 0 5.871-1.84 7.01-4.833l6.312-16.575 5.946 15.756c1.465 3.878 5.789 5.835 9.667 4.372zm3.932 41.775c-4.142 0-7.5 3.358-7.5 7.5v33.681c0 4.142 3.358 7.5 7.5 7.5s7.5-3.358 7.5-7.5v-33.681c0-4.142-3.357-7.5-7.5-7.5zm155.259 1.356c-3.471-2.259-8.118-1.278-10.377 2.194l-11.457 17.6-11.59-17.75c-2.265-3.468-6.913-4.444-10.38-2.179-3.468 2.265-4.444 6.912-2.179 10.38l16.629 25.468-.04 2.994c-.055 4.142 3.259 7.543 7.4 7.599h.101c4.096 0 7.443-3.293 7.498-7.401l.041-3.107 16.547-25.42c2.26-3.473 1.278-8.119-2.193-10.378zm-77.576.299h-15.384c-1.991 0-3.9.792-5.308 2.201-1.407 1.409-2.195 3.32-2.192 5.311 0 0 .039 24.894.039 31.088 0 4.142 3.358 7.5 7.5 7.5s7.5-3.358 7.5-7.5c0-3.991-.016-15.737-.028-23.6h7.873c13.395 0 14.436 15.047 14.436 19.659 0 4.142 3.358 7.5 7.5 7.5s7.5-3.358 7.5-7.5c0-20.73-11.83-34.659-29.436-34.659zm-38.789-1.655c-4.142 0-7.5 3.358-7.5 7.5v33.641c0 4.142 3.358 7.5 7.5 7.5s7.5-3.358 7.5-7.5v-33.641c0-4.142-3.357-7.5-7.5-7.5zm11.06-59.356c-6.789-2.504-13.116-5.229-15.148-6.118-1.272-1.064-1.227-2.525-1.139-3.139.128-.893.784-3.076 4.099-4.075 7.611-2.291 14.72 3.293 14.941 3.47 3.17 2.627 7.872 2.207 10.525-.95 2.665-3.171 2.255-7.902-.916-10.567-.536-.451-13.328-10.999-28.878-6.315-7.917 2.385-13.519 8.633-14.62 16.306-1.035 7.211 2.091 14.148 8.16 18.104.331.216.679.405 1.04.566.325.145 8.048 3.583 16.744 6.791.856.316 1.733.465 2.595.465 3.052 0 5.92-1.876 7.038-4.906 1.434-3.886-.555-8.198-4.441-9.632z" fill="#314dca"/><path d="m260 130.001c0 24.833-6.964 48.04-19.044 67.775-1.763 2.879-4.19 5.306-7.069 7.069-19.735 12.08-42.942 19.044-67.775 19.044-71.558 0-130.001-58.443-130.001-130.001 0-24.823 6.958-48.021 19.029-67.751 1.772-2.896 4.212-5.336 7.108-7.108 19.73-12.071 42.928-19.029 67.751-19.029 71.558-.001 130.002 58.443 130.001 130.001z" fill="#4f66d1"/><path d="m242.173 195.745c-22.581 38.446-64.363 64.255-112.173 64.255-71.797 0-130-58.203-130-130 0-47.81 25.809-89.592 64.255-112.173-11.33 19.289-17.827 41.758-17.827 65.745 0 71.797 58.203 130 130 130 23.987-.001 46.457-6.498 65.745-17.827z" fill="#314dca"/><path d="m199.83 60.17c-23.076-23.076-60.623-23.076-83.7 0-21.19 21.19-22.922 54.582-5.196 77.767l-34.052 34.052c-2.929 2.929-2.929 7.678 0 10.607s7.677 2.929 10.607 0l33.986-33.986c23.205 18.21 56.985 16.63 78.355-4.74 23.076-23.077 23.076-60.624 0-83.7zm-10.606 73.093c-17.227 17.227-45.259 17.227-62.486 0s-17.227-45.259 0-62.486 45.259-17.227 62.486 0 17.227 45.258 0 62.486z" fill="#fff"/><path d="m108.743 172.199-29.263 29.264c-4.882 4.882-12.796 4.882-17.678 0l-3.536-3.536c-4.882-4.882-4.882-12.796 0-17.678l29.263-29.263c4.882-4.882 12.796-4.882 17.678 0l3.536 3.536c4.881 4.881 4.882 12.796 0 17.677z" fill="#ffc143"/></g></svg>